<?xml version="1.0" encoding="utf-8"?>
<!-- Generator: Adobe Illustrator 19.2.1, SVG Export Plug-In . SVG Version: 6.00 Build 0)  -->
<!DOCTYPE svg PUBLIC "-//W3C//DTD SVG 1.1//EN" "http://www.w3.org/Graphics/SVG/1.1/DTD/svg11.dtd">
<svg version="1.1" id="Layer_1" xmlns="http://www.w3.org/2000/svg" xmlns:xlink="http://www.w3.org/1999/xlink" x="0px" y="0px"
	 viewBox="0 0 103.4 99.7" style="enable-background:new 0 0 103.4 99.7;" xml:space="preserve">
<path style="fill:#EF4136;stroke:#000000;stroke-width:3;stroke-miterlimit:10;" d="M101.9,58.8c0,27.7-21.4,39.5-49.1,39.5
	S1.5,86.5,1.5,58.8S24,14.1,51.7,14.1S101.9,31,101.9,58.8z"/>
<circle cx="34.6" cy="61.7" r="5.7"/>
<circle cx="68.7" cy="61.7" r="5.7"/>
<path style="fill:#EF4136;stroke:#000000;stroke-width:2;stroke-miterlimit:10;" d="M40.7,78.9c0,0-2.3-7.3,11.2-7.9
	c13.5-0.6,11.9,6.9,11.9,6.9L40.7,78.9z"/>
<path style="fill:#BE1E2D;" d="M53.7,77.5l9.5-0.4c0,0,0-1.4-1-2.4c-0.5-0.5-1.1-1-1.7-1.3c-0.6-0.3-1-0.4-1.3-0.6
	c-1.9-0.6-1.8-0.5-1.8-0.5L53.7,77.5z"/>
<g>
	<path style="fill:#39B54A;" d="M67.1,29.1c-0.4-0.4-0.8-0.8-1.2-1.1c0.1-0.3,0-0.6-0.1-0.9c-1.4-2.8-3.4-5.2-5.7-7.2
		c0.3-0.1,0.5-1.1,0.8-1.2c1.2,0.2,2.5,0.4,3.7,0.6c1.4,0.2,2-1.2,0.8-1.8c-1.4-0.8-2.9-1.2-4.5-0.9c-0.1,0-0.3,0.1-0.4,0.1
		c-0.2,0-0.3-0.1-0.5-0.1c-1.2-0.2-3.3-0.2-4.1-1.3c-0.3-0.4-0.8-0.6-1.2-0.6c0.1-0.4,0.2-0.9,0.4-1.3c0,0,0,0,0,0
		c0.1-0.1,0.1-0.2,0.2-0.3c0.3-0.6-0.1-1.2-0.6-1.5c0-1.5-0.2-3-0.5-4.3c-0.3-1.6-0.9-3.1-2-4.4C50.6,1,48.8,1.1,46.7,1
		c-1.3,0-2.3,0.5-2.9,1.2c-0.1-0.1-0.3-0.1-0.5-0.1c-1.6,0-1.8,2.3-0.5,2.7c-0.1,1.3,0.5,2.7,1.6,3.5c0.1,0.5,0.2,1,0.4,1.6
		c0.1,0.4,0.3,1,0.5,1.4c0.1,0.1,0.1,0.2,0.2,0.3c0,0,0,0.1,0,0.2c0,1.2-0.1,2.2,0.2,3.2c-2.2,0.1-4.3,0.6-6.4,1.4c0,0-0.1,0-0.1,0
		c-0.7,0.1-1.3,0.4-1.8,0.9c-0.1,0.1-0.2,0.2-0.2,0.3c-3.1,0.9-5.5,3.4-8.3,4.9c-1.6,0.9-0.8,2.6,0.8,1.8c1.4-0.7,2.8-1.7,4.4-2.5
		c0.2,0.3,0.5,0.4,1,0.5c2.1,0.1,3.9-0.8,5.1-2.4c0.7,0,1.3,0,2,0.2c-0.4,0.1-0.7,0.3-1.1,0.6c-1.3,1.1-1.7,3-2.2,4.5
		c-0.8,2.3-1.6,4.7-2.4,7c-0.6,1.7-0.1,3,0.6,1.4c1.8-4,6-9.3,10.5-10.8c2.2-0.7,4.1-0.1,6.1,0.8c2.2,1,4.3,2,6.5,3.1
		c1.7,1.4,3.4,2.9,5.1,4.5C66.4,32.3,68.4,30.4,67.1,29.1z"/>
	<path d="M77.1,21.2c-6.8-2.8-13.9-4.9-21.2-6.1c0-4.4-0.7-9.2-2.9-12.8c-3-4.9-7.8-0.7-11.5,0.5c-0.5,0.1-0.6,0.6-0.3,1
		c2.4,3,3.9,6.5,4.4,10.2c-0.1,0-0.1,0-0.2,0c-6.4,0.1-16.5,6.3-19.3,10.6c-0.3,0.4,0.2,1.1,0.7,0.9c4.5-1.5,9-3.1,13.5-4.6
		c-3,4.1-4.6,9.1-4.5,14.3c0,0.6,0.3,0.9,0.6,0.4c1.6-2.8,3.3-6.6,5.5-9.1c2-2.3,6-5.1,9.5-3.9c3,1,4.6,2.5,8.6,5
		c2.8,1.8,5.5,3.7,8.1,5.6c0.4,0.3,1.1-0.2,0.9-0.7c-1.8-4.9-4.5-9.4-7.8-13.4c5.4,0.5,10.7,1.5,15.9,3.2
		C77.5,22.6,77.8,21.5,77.1,21.2z M59.5,17.9c-0.5,0-0.8,0.6-0.4,1c3.3,3.6,5.9,7.7,7.8,12.1c-4.1-3-6.3-4.4-8.4-5.7
		c-2.5-1.6-5.8-4.4-8.9-4.2c-3,0.2-6.8,3.7-8.7,5.6c-1.9,2-2.3,3.4-3.9,6.5c0.3-4.9,2.2-9.4,5.4-13.2c0.4-0.4,0.1-1.2-0.6-1
		c-4.6,1.5-9.1,3.1-13.7,4.6c2.4-3.1,12.2-8.5,17.2-8.6c0.2,0,0.3-0.1,0.4-0.1c0.1,1.5,0.1,3,0,4.5c-0.1,0.8,1.1,0.8,1.2,0
		c0.6-5.7-0.9-11.3-4.3-15.9c1.3-0.5,2.5-1.3,3.8-1.9c1.6-0.7,3.5-1.1,4.9,0.2c0.8,0.7,1.2,1.7,1.5,2.7c1.7,4.5,2.3,9.3,1.7,14.1
		c-0.1,0.8,1.1,0.8,1.2,0c0.1-0.8,0.1-1.6,0.2-2.5c3.4,0.6,6.8,1.3,10.1,2.3C63.8,18.3,61.7,18,59.5,17.9z"/>
</g>
<circle style="fill:#FFFFFF;" cx="32.4" cy="58.6" r="1.9"/>
<circle style="fill:#FFFFFF;" cx="66.5" cy="58.7" r="1.9"/>
</svg>
